<?xml version="1.0" encoding="UTF-8" standalone="no"?>
<!-- Created with Inkscape (http://www.inkscape.org/) -->

<svg
   xmlns:dc="http://purl.org/dc/elements/1.1/"
   xmlns:cc="http://creativecommons.org/ns#"
   xmlns:rdf="http://www.w3.org/1999/02/22-rdf-syntax-ns#"
   xmlns:svg="http://www.w3.org/2000/svg"
   xmlns="http://www.w3.org/2000/svg"
   xmlns:xlink="http://www.w3.org/1999/xlink"
   xmlns:sodipodi="http://sodipodi.sourceforge.net/DTD/sodipodi-0.dtd"
   xmlns:inkscape="http://www.inkscape.org/namespaces/inkscape"
   version="1.1"
   width="400"
   height="400"
   id="svg2"
   inkscape:version="0.48.2 r9819"
   sodipodi:docname="clock-plain.svg"
   inkscape:export-filename="/Users/gmp26/angular/StopTheClock/app/img/axis.png"
   inkscape:export-xdpi="90"
   inkscape:export-ydpi="90">
  <sodipodi:namedview
     pagecolor="#ffffff"
     bordercolor="#666666"
     borderopacity="1"
     objecttolerance="10"
     gridtolerance="10"
     guidetolerance="10"
     inkscape:pageopacity="0"
     inkscape:pageshadow="2"
     inkscape:window-width="1056"
     inkscape:window-height="767"
     id="namedview3606"
     showgrid="false"
     showguides="true"
     inkscape:guide-bbox="true"
     inkscape:zoom="2.866485"
     inkscape:cx="144.27822"
     inkscape:cy="282.62261"
     inkscape:window-x="9"
     inkscape:window-y="65"
     inkscape:window-maximized="0"
     inkscape:current-layer="svg2">
    <sodipodi:guide
       orientation="1,0"
       position="200,276.77584"
       id="guide3800" />
    <sodipodi:guide
       orientation="0,1"
       position="86.831637,200"
       id="guide3802" />
  </sodipodi:namedview>
  <defs
     id="defs6455">
    <filter
       inkscape:collect="always"
       id="filter5162"
       x="-0.39927697"
       width="1.7985539"
       y="-0.07914923"
       height="1.1582985">
      <feGaussianBlur
         inkscape:collect="always"
         stdDeviation="2.7970183"
         id="feGaussianBlur5164" />
    </filter>
    <filter
       inkscape:collect="always"
       id="filter5198"
       x="-0.43521187"
       width="1.8704237"
       y="-0.086272661"
       height="1.1725453">
      <feGaussianBlur
         inkscape:collect="always"
         stdDeviation="2.2704441"
         id="feGaussianBlur5200" />
    </filter>
    <filter
       inkscape:collect="always"
       id="filter5206"
       x="-0.4352119"
       width="1.8704238"
       y="-0.08627266"
       height="1.1725453">
      <feGaussianBlur
         inkscape:collect="always"
         stdDeviation="3.04875"
         id="feGaussianBlur5208" />
    </filter>
    <filter
       inkscape:collect="always"
       id="filter5214"
       x="-0.43521187"
       width="1.8704237"
       y="-0.086272661"
       height="1.1725453">
      <feGaussianBlur
         inkscape:collect="always"
         stdDeviation="2.2704441"
         id="feGaussianBlur5216" />
    </filter>
  </defs>
  <metadata
     id="metadata7">
    <rdf:RDF>
      <cc:Work
         rdf:about="">
        <dc:format>image/svg+xml</dc:format>
        <dc:type
           rdf:resource="http://purl.org/dc/dcmitype/StillImage" />
        <dc:title></dc:title>
      </cc:Work>
    </rdf:RDF>
  </metadata>
  <image
     sodipodi:absref="/Users/gmp26/angular/StopTheClock/app/img/alarmclock.png"
     xlink:href="alarmclock.png"
     id="image3066"
     height="367"
     width="350"
     y="0.9952001"
     x="25.880064" />
  <g
     style="font-size:40px;font-style:normal;font-variant:normal;font-weight:100;font-stretch:normal;text-align:start;line-height:125%;letter-spacing:0px;word-spacing:0px;writing-mode:lr-tb;text-anchor:start;fill:#00d455;fill-opacity:1;stroke:#008033;stroke-opacity:1;font-family:Skia;-inkscape-font-specification:Skia Thin"
     id="one"
     transform="translate(25.663045,-684.36698)">
    <path
       inkscape:connector-curvature="0"
       id="path7202"
       d="m 225.84027,814.54492 -3.04687,0 c 0.013,-0.41666 0.0391,-1.58854 0.0781,-3.51562 0.0391,-1.92708 0.0586,-4.60286 0.0586,-8.02735 0,-0.59894 -0.007,-1.46483 -0.0195,-2.59765 0,-1.1328 -0.007,-2.01822 -0.0195,-2.65625 l -0.0586,-0.0195 c -0.57293,0.32553 -1.41277,0.83334 -2.51953,1.52343 -1.10678,0.69012 -2.29167,1.4258 -3.55469,2.20703 l -1.11328,-1.71875 c 1.5625,-1.09373 3.21614,-2.24607 4.96094,-3.45703 1.7578,-1.22394 2.7604,-1.92055 3.00781,-2.08984 l 2.22656,1.54297 c -0.026,1.88804 -0.0456,3.82163 -0.0586,5.80078 -0.013,1.97918 -0.0195,3.14454 -0.0195,3.49609 -1e-5,1.53647 0.007,3.40496 0.0195,5.60547 0.026,2.1875 0.0456,3.48959 0.0586,3.90625" />
  </g>
  <g
     style="font-size:40px;font-style:normal;font-variant:normal;font-weight:100;font-stretch:normal;text-align:start;line-height:125%;letter-spacing:0px;word-spacing:0px;writing-mode:lr-tb;text-anchor:start;fill:#00d455;fill-opacity:1;stroke:#008033;stroke-opacity:1;font-family:Skia;-inkscape-font-specification:Skia Thin"
     id="two"
     transform="translate(25.663045,-684.36698)">
    <path
       inkscape:connector-curvature="0"
       style="line-height:125%;fill:#00d455;stroke:#008033;font-family:Skia;-inkscape-font-specification:Skia Thin"
       id="path7199"
       d="m 267.99391,847.79706 c -0.18231,0 -1.40627,0 -3.67187,0 -2.26564,-0.013 -3.93882,-0.0195 -5.01953,-0.0195 -1.53647,0 -3.38543,0.007 -5.54688,0.0195 -2.14844,0 -3.28125,0 -3.39844,0 l -0.74218,-2.20703 c 1.09374,-0.53385 2.36327,-1.20443 3.80859,-2.01172 1.45833,-0.82031 2.59765,-1.54948 3.41797,-2.1875 1.28905,-0.98958 2.26561,-1.92708 2.92969,-2.8125 0.67707,-0.89843 1.01561,-1.95963 1.01562,-3.1836 -10e-6,-0.9505 -0.21486,-1.75128 -0.64453,-2.40234 -0.41668,-0.66405 -1.00913,-1.19139 -1.77734,-1.58203 -0.70314,-0.35155 -1.51043,-0.59894 -2.42188,-0.74219 -0.89844,-0.15623 -1.85547,-0.23436 -2.87109,-0.23437 -0.35157,1e-5 -0.75522,0.013 -1.21094,0.0391 -0.44271,0.013 -0.82683,0.0261 -1.15234,0.0391 l 0.27343,-2.59765 c 0.22135,-0.013 0.54687,-0.026 0.97657,-0.0391 0.4427,-0.026 0.91145,-0.039 1.40625,-0.0391 1.41926,2e-5 2.68228,0.10419 3.78906,0.3125 1.10676,0.19533 2.1354,0.52085 3.08594,0.97656 1.1979,0.57294 2.12889,1.3607 2.79296,2.36328 0.66405,0.9896 0.99608,2.18101 0.9961,3.57422 -2e-5,1.17189 -0.26694,2.25913 -0.80078,3.26172 -0.53387,1.00261 -1.19793,1.88803 -1.99219,2.65625 -0.82033,0.8073 -1.82293,1.59506 -3.00781,2.36328 -1.17189,0.76824 -2.33074,1.4323 -3.47657,1.99219 l 0.0391,0.11719 c 0.55989,-0.0521 1.2565,-0.0977 2.08984,-0.13672 0.83332,-0.0521 1.66015,-0.0846 2.48047,-0.0977 1.64061,-0.026 3.44399,-0.0456 5.41016,-0.0586 1.96612,-0.026 3.04034,-0.0391 3.22265,-0.0391 l 0,2.67578" />
  </g>
  <g
     style="font-size:40px;font-style:normal;font-variant:normal;font-weight:100;font-stretch:normal;text-align:start;line-height:125%;letter-spacing:0px;word-spacing:0px;writing-mode:lr-tb;text-anchor:start;fill:#00d455;fill-opacity:1;stroke:#008033;stroke-opacity:1;font-family:Skia;-inkscape-font-specification:Skia Thin"
     id="three"
     transform="translate(25.663045,-684.36698)">
    <path
       inkscape:connector-curvature="0"
       style="line-height:125%;fill:#00d455;stroke:#008033;font-family:Skia;-inkscape-font-specification:Skia Thin"
       id="path7196"
       d="m 276.58725,890.28229 c -2e-5,1.25 -0.3646,2.40234 -1.09375,3.45703 -0.71616,1.0677 -1.78387,1.95312 -3.20313,2.65625 -1.1849,0.57291 -2.45443,0.99609 -3.80859,1.26953 -1.34115,0.28645 -3.04688,0.42968 -5.11719,0.42969 -0.3125,-10e-6 -0.63151,-0.007 -0.95703,-0.0195 -0.32552,-10e-6 -0.5599,-0.007 -0.70312,-0.0195 l -0.3711,-2.57813 c 0.14323,0 0.42318,0 0.83985,0 0.42968,0 0.80078,0 1.11328,0 1.13281,0 2.25911,-0.0651 3.3789,-0.19531 1.11979,-0.13021 2.08984,-0.33204 2.91016,-0.60547 1.19791,-0.40365 2.12239,-0.95052 2.77344,-1.64063 0.66405,-0.67708 0.99608,-1.54947 0.99609,-2.61718 -10e-6,-0.9375 -0.33855,-1.73177 -1.01562,-2.38282 -0.6771,-0.65103 -1.556,-1.12629 -2.63672,-1.42578 -0.45574,-0.1302 -0.96355,-0.22786 -1.52344,-0.29297 -0.5599,-0.0651 -1.22396,-0.0977 -1.99219,-0.0977 -0.28646,0 -0.55339,0.007 -0.80078,0.0195 -0.2474,0.013 -0.46224,0.026 -0.64453,0.0391 l -0.35156,-2.40234 c 2.44791,-0.24739 4.30989,-0.77473 5.58594,-1.58203 1.28905,-0.80728 1.93358,-1.89452 1.93359,-3.26172 -10e-6,-0.95051 -0.23439,-1.71874 -0.70313,-2.30469 -0.45573,-0.59894 -1.10678,-1.06769 -1.95312,-1.40625 -0.59897,-0.23436 -1.30209,-0.40363 -2.10938,-0.50781 -0.80729,-0.10415 -1.60156,-0.15623 -2.38281,-0.15625 -0.33854,2e-5 -0.69011,0.007 -1.05469,0.0195 -0.35156,2e-5 -0.57943,2e-5 -0.68359,0 l 0.52734,-2.61719 c 0.10417,2e-5 0.2474,2e-5 0.42969,0 0.19531,2e-5 0.3776,2e-5 0.54688,0 1.36718,2e-5 2.61718,0.0716 3.75,0.21485 1.14582,0.13022 2.27212,0.44923 3.3789,0.95703 1.05468,0.48179 1.90103,1.14585 2.53907,1.99218 0.638,0.84637 0.95701,1.90757 0.95703,3.1836 -2e-5,1.32813 -0.44924,2.52605 -1.34766,3.59375 -0.88543,1.05469 -1.97918,1.84245 -3.28125,2.36328 l 0,0.0781 c 1.86197,0.35157 3.33983,0.98959 4.43359,1.91407 1.09374,0.92448 1.64061,2.23307 1.64063,3.92578" />
  </g>
  <g
     style="font-size:40px;font-style:normal;font-variant:normal;font-weight:100;font-stretch:normal;text-align:start;line-height:125%;letter-spacing:0px;word-spacing:0px;writing-mode:lr-tb;text-anchor:start;fill:#00d455;fill-opacity:1;stroke:#008033;stroke-opacity:1;font-family:Skia;-inkscape-font-specification:Skia Thin"
     id="four"
     transform="translate(25.663045,-684.36698)">
    <path
       inkscape:connector-curvature="0"
       style="line-height:125%;fill:#00d455;stroke:#008033;font-family:Skia;-inkscape-font-specification:Skia Thin"
       id="path7193"
       d="m 267.6927,933.55493 c -1.56252,-0.026 -2.91017,-0.0456 -4.04297,-0.0586 -1.11981,-0.013 -2.14194,-0.0195 -3.0664,-0.0195 -0.0261,2.53906 -0.0326,4.6289 -0.0195,6.26953 0.026,1.64062 0.0455,2.66926 0.0586,3.08594 l -3.00781,0 c -10e-6,-0.41668 0.007,-1.50392 0.0195,-3.26172 0.026,-1.75782 0.0521,-3.78906 0.0781,-6.09375 l -11.17187,0.0781 -1.25,-2.32422 c 3.32031,-3.6328 6.26301,-6.93358 8.82812,-9.90234 2.5651,-2.96873 3.99088,-4.61587 4.27735,-4.94141 l 2.28515,1.34766 c -0.0521,2.22658 -0.0846,4.95444 -0.0976,8.18359 -2e-5,3.22918 -2e-5,4.94793 0,5.15625 0.638,10e-6 1.46482,-0.007 2.48047,-0.0195 1.0156,-0.013 2.55857,-0.0325 4.6289,-0.0586 l 0,2.55859 m -9.9414,-13.04687 -0.0391,-0.0195 -9.10156,10.54687 0.0195,0.0391 c 0.14323,10e-6 0.54687,0.007 1.21094,0.0195 0.67708,10e-6 1.67968,10e-6 3.00781,0 0.50781,10e-6 1.1914,10e-6 2.05078,0 0.85937,10e-6 1.79687,-0.006 2.8125,-0.0195 -1e-5,-1.83593 -1e-5,-3.49608 0,-4.98047 -1e-5,-1.49738 0.013,-3.35936 0.0391,-5.58593" />
  </g>
  <g
     style="font-size:40px;font-style:normal;font-variant:normal;font-weight:100;font-stretch:normal;text-align:start;line-height:125%;letter-spacing:0px;word-spacing:0px;writing-mode:lr-tb;text-anchor:start;fill:#00d455;fill-opacity:1;stroke:#008033;stroke-opacity:1;font-family:Skia;-inkscape-font-specification:Skia Thin"
     id="five"
     transform="translate(25.663045,-684.36698)">
    <path
       inkscape:connector-curvature="0"
       style="line-height:125%;fill:#00d455;stroke:#008033;font-family:Skia;-inkscape-font-specification:Skia Thin"
       id="path7190"
       d="m 231.90364,952.79407 c -0.10418,10e-6 -1.23699,-0.013 -3.39844,-0.0391 -2.16147,-0.026 -4.66797,-0.039 -7.51953,-0.0391 l 0,7.34375 c 1.39322,0.0912 2.63671,0.27345 3.73047,0.54688 1.10676,0.27344 2.06379,0.60547 2.87109,0.99609 1.27603,0.62501 2.22004,1.43881 2.83204,2.44141 0.61196,1.00261 0.91795,2.14193 0.91796,3.41797 -1e-5,1.27604 -0.38413,2.49349 -1.15234,3.65234 -0.76824,1.15885 -1.82293,2.07031 -3.16406,2.73437 -1.00262,0.49479 -2.181,0.88542 -3.53516,1.17188 -1.35417,0.28645 -2.90365,0.42968 -4.64844,0.42969 -0.23437,-10e-6 -0.49479,-10e-6 -0.78125,0 -0.28646,-10e-6 -0.48177,-10e-6 -0.58593,0 l -0.35157,-2.59766 c 0.10417,0 0.27344,0 0.50782,0 0.23437,0 0.41015,0 0.52734,0 1.40625,0 2.74739,-0.0977 4.02344,-0.29297 1.27603,-0.19531 2.32421,-0.48828 3.14453,-0.8789 0.96353,-0.46876 1.66665,-1.04818 2.10937,-1.73829 0.4427,-0.67708 0.66405,-1.46484 0.66407,-2.36328 -2e-5,-0.89843 -0.27345,-1.6927 -0.82032,-2.38281 -0.53386,-0.70312 -1.38673,-1.27603 -2.55859,-1.71875 -0.59897,-0.22135 -1.36069,-0.39713 -2.28516,-0.52734 -0.92448,-0.1302 -1.9987,-0.21484 -3.22265,-0.25391 -0.16928,1e-5 -0.36459,1e-5 -0.58594,0 -0.22136,-0.013 -0.38412,-0.0195 -0.48828,-0.0195 0.013,-0.14322 0.0195,-0.98307 0.0195,-2.51953 0,-1.54947 0,-2.85155 0,-3.90625 0,-0.93749 -0.007,-2.17447 -0.0195,-3.71094 0,-1.53644 0,-2.36326 0,-2.48047 0.10416,2e-5 0.89843,0.007 2.38281,0.0195 1.48437,2e-5 2.93619,2e-5 4.35547,0 1.19791,2e-5 2.65624,2e-5 4.375,0 1.71873,-0.013 2.60415,-0.0195 2.65625,-0.0195 l 0,2.73438" />
  </g>
  <g
     style="font-size:40px;font-style:normal;font-variant:normal;font-weight:100;font-stretch:normal;text-align:start;line-height:125%;letter-spacing:0px;word-spacing:0px;writing-mode:lr-tb;text-anchor:start;fill:#00d455;fill-opacity:1;stroke:#008033;stroke-opacity:1;font-family:Skia;-inkscape-font-specification:Skia Thin"
     id="six"
     transform="translate(25.663045,-684.36698)">
    <path
       inkscape:connector-curvature="0"
       style="line-height:125%;fill:#00d455;stroke:#008033;font-family:Skia;-inkscape-font-specification:Skia Thin"
       id="path7187"
       d="m 184.45007,978.75323 c -2e-5,1.19793 -0.25392,2.3698 -0.76172,3.51563 -0.49481,1.13282 -1.13283,2.07032 -1.91406,2.8125 -0.87241,0.83333 -1.84246,1.47135 -2.91015,1.91406 -1.05471,0.44271 -2.24611,0.66406 -3.57422,0.66406 -1.27606,0 -2.48699,-0.20182 -3.63282,-0.60546 -1.14584,-0.40365 -2.19401,-1.05469 -3.14453,-1.95313 -0.74219,-0.70312 -1.34115,-1.5625 -1.79687,-2.57812 -0.44271,-1.02864 -0.66407,-2.21354 -0.66406,-3.55469 -1e-5,-1.40624 0.27343,-2.79947 0.82031,-4.17969 0.54687,-1.38019 1.67317,-3.08592 3.3789,-5.11719 1.64062,-1.9531 3.22265,-3.73695 4.7461,-5.35156 1.53644,-1.62758 2.87759,-3.05987 4.02344,-4.29687 l 2.24609,1.8164 c -0.95054,0.96357 -2.19403,2.2331 -3.73047,3.8086 -1.52345,1.57554 -2.76694,2.85809 -3.73047,3.84765 l 0,0.0391 c 0.83332,0.11721 1.79686,0.33205 2.89063,0.64454 1.09373,0.29949 2.11587,0.70965 3.0664,1.23046 1.53644,0.84637 2.70181,1.89455 3.4961,3.14454 0.79425,1.23699 1.19138,2.63672 1.1914,4.19921 m -3.16406,0.19532 c -2e-5,-1.21093 -0.37762,-2.3177 -1.13281,-3.32032 -0.74221,-1.01561 -1.76434,-1.84243 -3.06641,-2.48046 -0.78126,-0.37759 -1.66017,-0.67707 -2.63672,-0.89844 -0.96355,-0.23436 -1.72527,-0.37108 -2.28515,-0.41016 -0.88543,0.9245 -1.60157,2.01824 -2.14844,3.28125 -0.53386,1.25001 -0.80079,2.50652 -0.80078,3.76953 -1e-5,0.97657 0.17577,1.87501 0.52734,2.69532 0.35156,0.82031 0.79427,1.48438 1.32813,1.99218 0.57291,0.54688 1.20442,0.95053 1.89453,1.21094 0.70311,0.26042 1.47785,0.39063 2.32422,0.39063 0.87238,0 1.67967,-0.15625 2.42187,-0.46875 0.7552,-0.3125 1.36717,-0.70964 1.83594,-1.19141 0.5729,-0.58593 1.00259,-1.27604 1.28906,-2.07031 0.29946,-0.79427 0.4492,-1.6276 0.44922,-2.5" />
  </g>
  <g
     style="font-size:40px;font-style:normal;font-variant:normal;font-weight:100;font-stretch:normal;text-align:start;line-height:125%;letter-spacing:0px;word-spacing:0px;writing-mode:lr-tb;text-anchor:start;fill:#00d455;fill-opacity:1;stroke:#008033;stroke-opacity:1;font-family:Skia;-inkscape-font-specification:Skia Thin"
     id="seven"
     transform="translate(25.663045,-684.36698)">
    <path
       inkscape:connector-curvature="0"
       style="line-height:125%;fill:#00d455;stroke:#008033;font-family:Skia;-inkscape-font-specification:Skia Thin"
       id="path7184"
       d="m 141.5855,955.47504 c -3.22918,5.98959 -6.04819,11.25651 -8.45703,15.80078 -2.40886,4.53124 -3.76303,7.08984 -4.0625,7.67578 l -2.5,-1.19141 c 2.8776,-5.16927 5.43619,-9.92187 7.67578,-14.25781 2.25259,-4.33592 3.52863,-6.81639 3.82813,-7.44141 l -0.0195,-0.0391 c -0.57293,2e-5 -1.16538,2e-5 -1.77735,0 -0.59897,2e-5 -1.23048,2e-5 -1.89453,0 -2.39584,2e-5 -4.71355,0.0195 -6.95312,0.0586 -2.23959,0.0391 -3.43099,0.0586 -3.57422,0.0586 l 0,-2.73438 c 0.11718,2e-5 1.0026,0.007 2.65625,0.0195 1.66666,1e-5 3.444,1e-5 5.33203,0 1.4453,1e-5 3.15103,1e-5 5.11719,0 1.97915,-0.013 3.0729,-0.0195 3.28125,-0.0195 l 1.34765,2.07032" />
  </g>
  <g
     style="font-size:40px;font-style:normal;font-variant:normal;font-weight:100;font-stretch:normal;text-align:start;line-height:125%;letter-spacing:0px;word-spacing:0px;writing-mode:lr-tb;text-anchor:start;fill:#00d455;fill-opacity:1;stroke:#008033;stroke-opacity:1;font-family:Skia;-inkscape-font-specification:Skia Thin"
     id="eight"
     transform="translate(25.663045,-684.36698)">
    <path
       inkscape:connector-curvature="0"
       style="line-height:125%;fill:#00d455;stroke:#008033;font-family:Skia;-inkscape-font-specification:Skia Thin"
       id="path7181"
       d="m 104.15539,935.29883 c -2e-5,2.16146 -0.87242,3.94531 -2.61719,5.35156 -1.744807,1.39323 -3.860691,2.08984 -6.347656,2.08984 -2.591155,0 -4.73959,-0.65755 -6.445312,-1.97265 -1.705733,-1.32812 -2.558597,-3.08593 -2.558594,-5.27344 -3e-6,-1.26301 0.390622,-2.43489 1.171875,-3.51562 0.781245,-1.08072 1.933588,-2.17447 3.457031,-3.28125 l 0,-0.0391 c -1.197923,-0.638 -2.128911,-1.40623 -2.792969,-2.30468 -0.664066,-0.89843 -0.996097,-2.06379 -0.996093,-3.4961 -4e-6,-1.94008 0.807287,-3.53513 2.421875,-4.78515 1.627596,-1.263 3.541657,-1.89451 5.742187,-1.89454 2.447903,3e-5 4.440088,0.6055 5.976566,1.81641 1.53644,1.19794 2.30466,2.76695 2.30468,4.70703 -2e-5,1.27606 -0.38413,2.46747 -1.15234,3.57422 -0.76825,1.10679 -1.68621,2.03777 -2.753906,2.79297 l 0,0.0391 c 1.380196,0.63804 2.486956,1.44533 3.320316,2.42188 0.84633,0.97657 1.26951,2.23308 1.26953,3.76953 m -3.84766,-12.01172 c -2e-5,-1.44529 -0.475275,-2.5781 -1.42578,-3.39844 -0.937514,-0.82029 -2.161471,-1.23044 -3.671875,-1.23047 -1.458343,3e-5 -2.662769,0.38414 -3.613281,1.15235 -0.937507,0.75523 -1.406256,1.78387 -1.40625,3.08593 -6e-6,0.84638 0.240879,1.55601 0.722656,2.12891 0.494784,0.55991 1.113273,1.03517 1.855469,1.42578 0.533845,0.28648 1.204417,0.58595 2.011719,0.89844 0.8203,0.31251 1.60806,0.58595 2.363281,0.82031 0.963527,-0.66405 1.731756,-1.39972 2.304688,-2.20703 0.572903,-0.82029 0.859353,-1.71222 0.859373,-2.67578 m 0.6836,12.30469 c -2e-5,-0.83333 -0.24091,-1.58854 -0.72266,-2.26563 -0.468767,-0.67707 -1.204443,-1.27603 -2.207032,-1.79687 -0.55991,-0.28645 -1.308607,-0.60546 -2.246094,-0.95703 -0.937511,-0.36458 -1.816417,-0.67708 -2.636719,-0.9375 -1.080737,0.69011 -1.992195,1.52995 -2.734375,2.51953 -0.729172,0.98959 -1.093755,2.08985 -1.09375,3.30078 -5e-6,1.35417 0.55989,2.49349 1.679688,3.41797 1.132804,0.92448 2.49348,1.38672 4.082031,1.38672 1.809883,0 3.242173,-0.40365 4.296875,-1.21094 1.054666,-0.80729 1.582016,-1.95963 1.582036,-3.45703" />
  </g>
  <g
     style="font-size:40px;font-style:normal;font-variant:normal;font-weight:100;font-stretch:normal;text-align:start;line-height:125%;letter-spacing:0px;word-spacing:0px;writing-mode:lr-tb;text-anchor:start;fill:#00d455;fill-opacity:1;stroke:#008033;stroke-opacity:1;font-family:Skia;-inkscape-font-specification:Skia Thin"
     id="nine"
     transform="translate(25.663045,-684.36698)">
    <path
       inkscape:connector-curvature="0"
       style="line-height:125%;fill:#00d455;stroke:#008033;font-family:Skia;-inkscape-font-specification:Skia Thin"
       id="path7178"
       d="m 89.481339,880.63696 c -2.1e-5,1.56251 -0.279969,2.98178 -0.839844,4.25782 -0.546894,1.27604 -1.406269,2.65625 -2.578125,4.14062 -1.328141,1.67969 -3.085952,3.66536 -5.273438,5.95703 -2.174489,2.30468 -3.554696,3.75651 -4.140625,4.35547 l -2.304687,-1.875 c 1.432285,-1.40625 2.753898,-2.72136 3.964844,-3.94531 1.223947,-1.21094 2.356759,-2.33073 3.398437,-3.35938 l -0.01953,-0.0391 c -1.158866,-0.15625 -2.356781,-0.43619 -3.59375,-0.83984 -1.236987,-0.41667 -2.356778,-0.97005 -3.359375,-1.66016 -1.067713,-0.72916 -1.946619,-1.64713 -2.636719,-2.75391 -0.690107,-1.11978 -1.035158,-2.46743 -1.035156,-4.04296 -2e-6,-1.27603 0.234372,-2.41536 0.703125,-3.41797 0.468746,-1.00259 1.087235,-1.90103 1.855469,-2.69532 0.820307,-0.84633 1.816399,-1.51039 2.988281,-1.99218 1.171866,-0.48175 2.415354,-0.72264 3.730469,-0.72266 1.354153,2e-5 2.597642,0.20184 3.730468,0.60547 1.145817,0.40366 2.14842,1.02866 3.007813,1.875 0.716127,0.71616 1.295553,1.56903 1.738281,2.55859 0.442688,0.97658 0.664042,2.1745 0.664063,3.59375 m -3.183594,0.13672 c -1.8e-5,-0.93749 -0.169288,-1.80988 -0.507813,-2.61719 -0.325537,-0.80727 -0.768245,-1.49087 -1.328125,-2.05078 -0.507827,-0.50779 -1.132827,-0.90493 -1.875,-1.1914 -0.729179,-0.28644 -1.503918,-0.42967 -2.324218,-0.42969 -0.872407,2e-5 -1.679698,0.15627 -2.421875,0.46875 -0.729175,0.31252 -1.360685,0.72918 -1.894532,1.25 -0.53386,0.53387 -0.957037,1.20444 -1.269531,2.01172 -0.299485,0.79428 -0.449224,1.60157 -0.449219,2.42187 -5e-6,1.22397 0.332026,2.32423 0.996094,3.30078 0.677076,0.97657 1.653638,1.79038 2.929688,2.44141 0.79426,0.40365 1.614572,0.72266 2.460937,0.95703 0.846342,0.22136 1.757799,0.38412 2.734375,0.48828 0.924464,-1.02864 1.647119,-2.10937 2.167969,-3.24218 0.520816,-1.14583 0.781232,-2.41536 0.78125,-3.8086" />
  </g>
  <g
     style="font-size:40px;font-style:normal;font-variant:normal;font-weight:100;font-stretch:normal;text-align:start;line-height:125%;letter-spacing:0px;word-spacing:0px;writing-mode:lr-tb;text-anchor:start;fill:#00d455;fill-opacity:1;stroke:#008033;stroke-opacity:1;font-family:Skia;-inkscape-font-specification:Skia Thin"
     id="ten"
     transform="translate(25.663045,-684.36698)">
    <path
       inkscape:connector-curvature="0"
       style="line-height:125%;fill:#00d455;stroke:#008033;font-family:Skia;-inkscape-font-specification:Skia Thin"
       id="path7173"
       d="m 89.188805,853.5705 -3.046875,0 c 0.01301,-0.41667 0.03905,-1.58854 0.07813,-3.51563 0.03905,-1.92708 0.05858,-4.60286 0.05859,-8.02734 -8e-6,-0.59895 -0.0065,-1.46483 -0.01953,-2.59766 -8e-6,-1.1328 -0.0065,-2.01821 -0.01953,-2.65625 l -0.05859,-0.0195 c -0.572924,0.32554 -1.412767,0.83335 -2.519531,1.52344 -1.106775,0.69012 -2.29167,1.42579 -3.554688,2.20703 L 78.9935,838.76584 c 1.562498,-1.09374 3.216142,-2.24608 4.960938,-3.45703 1.757805,-1.22394 2.760408,-1.92056 3.007812,-2.08985 l 2.226563,1.54297 c -0.02605,1.88804 -0.04558,3.82163 -0.05859,5.80078 -0.01303,1.97918 -0.01954,3.14454 -0.01953,3.4961 -1.1e-5,1.53646 0.0065,3.40495 0.01953,5.60547 0.02603,2.1875 0.04556,3.48958 0.05859,3.90625" />
    <path
       inkscape:connector-curvature="0"
       style="line-height:125%;fill:#00d455;stroke:#008033;font-family:Skia;-inkscape-font-specification:Skia Thin"
       id="path7175"
       d="m 116.0638,843.74628 c -2e-5,1.54948 -0.26694,2.98828 -0.80078,4.3164 -0.52085,1.31511 -1.25653,2.42188 -2.20703,3.32032 -0.93752,0.89843 -2.02476,1.58854 -3.26172,2.07031 -1.22397,0.48177 -2.55209,0.72265 -3.98437,0.72265 -1.41928,0 -2.74741,-0.24088 -3.98438,-0.72265 -1.22396,-0.48177 -2.285159,-1.17188 -3.18359,-2.07031 -0.976567,-0.97656 -1.725264,-2.10938 -2.246094,-3.39844 -0.507815,-1.30208 -0.761721,-2.72786 -0.761719,-4.27735 -2e-6,-1.5104 0.234373,-2.87759 0.703125,-4.10156 0.481768,-1.23696 1.165361,-2.33071 2.050781,-3.28125 0.85937,-0.92446 1.940097,-1.66014 3.242187,-2.20703 1.30207,-0.54685 2.70832,-0.82029 4.21875,-0.82031 1.52342,2e-5 2.91665,0.26043 4.17969,0.78125 1.263,0.52085 2.3242,1.23049 3.18359,2.1289 0.92446,0.96356 1.62758,2.07033 2.10938,3.32032 0.49477,1.23699 0.74216,2.64324 0.74218,4.21875 m -3.16406,0.17578 c -2e-5,-1.24999 -0.19533,-2.40884 -0.58594,-3.47656 -0.37762,-1.08072 -0.92449,-1.98567 -1.64062,-2.71485 -0.59898,-0.62498 -1.3021,-1.10675 -2.10938,-1.44531 -0.8073,-0.33852 -1.70574,-0.5078 -2.69531,-0.50781 -1.10678,1e-5 -2.05079,0.18882 -2.83203,0.5664 -0.78126,0.3646 -1.44532,0.82033 -1.99219,1.36719 -0.69011,0.6771 -1.236982,1.556 -1.640622,2.63672 -0.403651,1.08074 -0.605474,2.19402 -0.605468,3.33984 -6e-6,1.25001 0.188796,2.40235 0.566406,3.45703 0.390619,1.04168 0.996084,1.95313 1.816404,2.73438 0.57291,0.5599 1.24999,1.00261 2.03125,1.32812 0.78124,0.32553 1.64062,0.48829 2.57813,0.48829 0.96353,0 1.84243,-0.15625 2.63672,-0.46875 0.80727,-0.32552 1.50389,-0.77474 2.08984,-1.34766 0.76821,-0.72916 1.35415,-1.60156 1.75781,-2.61719 0.41665,-1.02864 0.62498,-2.14192 0.625,-3.33984" />
  </g>
  <g
     style="font-size:40px;font-style:normal;font-variant:normal;font-weight:100;font-stretch:normal;text-align:start;line-height:125%;letter-spacing:0px;word-spacing:0px;writing-mode:lr-tb;text-anchor:start;fill:#00d455;fill-opacity:1;stroke:#008033;stroke-opacity:1;font-family:Skia;-inkscape-font-specification:Skia Thin"
     id="eleven"
     transform="translate(25.663045,-684.36698)">
    <path
       inkscape:connector-curvature="0"
       style="line-height:125%;fill:#00d455;stroke:#008033;font-family:Skia;-inkscape-font-specification:Skia Thin"
       id="path7168"
       d="m 120.49783,815.73065 -3.04687,0 c 0.013,-0.41666 0.0391,-1.58854 0.0781,-3.51562 0.0391,-1.92708 0.0586,-4.60286 0.0586,-8.02735 -1e-5,-0.59894 -0.007,-1.46483 -0.0195,-2.59765 -1e-5,-1.1328 -0.007,-2.01822 -0.0195,-2.65625 l -0.0586,-0.0195 c -0.57292,0.32553 -1.41277,0.83334 -2.51953,1.52343 -1.10678,0.69012 -2.29167,1.4258 -3.55469,2.20703 l -1.11328,-1.71875 c 1.5625,-1.09373 3.21614,-2.24607 4.96094,-3.45703 1.7578,-1.22394 2.76041,-1.92055 3.00781,-2.08984 l 2.22656,1.54297 c -0.026,1.88804 -0.0456,3.82163 -0.0586,5.80078 -0.013,1.97918 -0.0195,3.14454 -0.0195,3.49609 -1e-5,1.53647 0.007,3.40496 0.0195,5.60547 0.026,2.1875 0.0456,3.48959 0.0586,3.90625" />
    <path
       inkscape:connector-curvature="0"
       style="line-height:125%;fill:#00d455;stroke:#008033;font-family:Skia;-inkscape-font-specification:Skia Thin"
       id="path7170"
       d="m 135.73221,815.73065 -3.04688,0 c 0.013,-0.41666 0.0391,-1.58854 0.0781,-3.51562 0.0391,-1.92708 0.0586,-4.60286 0.0586,-8.02735 -1e-5,-0.59894 -0.007,-1.46483 -0.0195,-2.59765 -1e-5,-1.1328 -0.007,-2.01822 -0.0195,-2.65625 l -0.0586,-0.0195 c -0.57293,0.32553 -1.41277,0.83334 -2.51954,1.52343 -1.10677,0.69012 -2.29167,1.4258 -3.55468,2.20703 l -1.11328,-1.71875 c 1.56249,-1.09373 3.21614,-2.24607 4.96093,-3.45703 1.75781,-1.22394 2.76041,-1.92055 3.00782,-2.08984 l 2.22656,1.54297 c -0.026,1.88804 -0.0456,3.82163 -0.0586,5.80078 -0.013,1.97918 -0.0195,3.14454 -0.0195,3.49609 -1e-5,1.53647 0.007,3.40496 0.0195,5.60547 0.026,2.1875 0.0456,3.48959 0.0586,3.90625" />
  </g>
  <g
     style="font-size:40px;font-style:normal;font-variant:normal;font-weight:100;font-stretch:normal;text-align:start;line-height:125%;letter-spacing:0px;word-spacing:0px;writing-mode:lr-tb;text-anchor:start;fill:#00d455;fill-opacity:1;stroke:#008033;stroke-opacity:1;font-family:Skia;-inkscape-font-specification:Skia Thin"
     id="twelve"
     transform="translate(25.663045,-684.36698)">
    <path
       inkscape:connector-curvature="0"
       style="line-height:125%;fill:#00d455;stroke:#008033;font-family:Skia;-inkscape-font-specification:Skia Thin"
       id="path7163"
       d="m 167.24002,798.77539 -3.04687,0 c 0.013,-0.41667 0.0391,-1.58854 0.0781,-3.51562 0.0391,-1.92708 0.0586,-4.60286 0.0586,-8.02735 0,-0.59894 -0.007,-1.46483 -0.0195,-2.59765 0,-1.1328 -0.007,-2.01822 -0.0195,-2.65625 l -0.0586,-0.0195 c -0.57293,0.32554 -1.41277,0.83335 -2.51953,1.52344 -1.10678,0.69012 -2.29167,1.4258 -3.55469,2.20703 l -1.11328,-1.71875 c 1.5625,-1.09373 3.21614,-2.24607 4.96094,-3.45703 1.7578,-1.22394 2.7604,-1.92055 3.00781,-2.08984 l 2.22656,1.54297 c -0.026,1.88803 -0.0456,3.82163 -0.0586,5.80078 -0.013,1.97918 -0.0196,3.14454 -0.0195,3.49609 -2e-5,1.53647 0.006,3.40496 0.0195,5.60547 0.026,2.1875 0.0456,3.48958 0.0586,3.90625" />
    <path
       inkscape:connector-curvature="0"
       style="line-height:125%;fill:#00d455;stroke:#008033;font-family:Skia;-inkscape-font-specification:Skia Thin"
       id="path7165"
       d="m 191.4783,798.73633 c -0.18231,0 -1.40627,0 -3.67187,0 -2.26564,-0.013 -3.93882,-0.0195 -5.01953,-0.0195 -1.53647,0 -3.38543,0.007 -5.54688,0.0195 -2.14844,0 -3.28125,0 -3.39844,0 l -0.74218,-2.20703 c 1.09374,-0.53385 2.36327,-1.20443 3.80859,-2.01172 1.45833,-0.82031 2.59765,-1.54948 3.41797,-2.1875 1.28905,-0.98958 2.26561,-1.92708 2.92969,-2.8125 0.67707,-0.89843 1.01561,-1.95963 1.01562,-3.1836 -10e-6,-0.9505 -0.21486,-1.75128 -0.64453,-2.40234 -0.41668,-0.66405 -1.00913,-1.19139 -1.77734,-1.58203 -0.70314,-0.35155 -1.51043,-0.59894 -2.42188,-0.74219 -0.89844,-0.15623 -1.85547,-0.23436 -2.87109,-0.23437 -0.35157,10e-6 -0.75522,0.013 -1.21094,0.0391 -0.44271,0.013 -0.82683,0.0261 -1.15234,0.0391 l 0.27343,-2.59765 c 0.22135,-0.013 0.54687,-0.026 0.97657,-0.0391 0.4427,-0.026 0.91145,-0.039 1.40625,-0.0391 1.41926,2e-5 2.68228,0.10419 3.78906,0.3125 1.10676,0.19533 2.1354,0.52085 3.08594,0.97656 1.1979,0.57294 2.12889,1.3607 2.79296,2.36328 0.66405,0.9896 0.99608,2.18101 0.9961,3.57422 -2e-5,1.17189 -0.26694,2.25913 -0.80078,3.26172 -0.53387,1.00261 -1.19793,1.88803 -1.99219,2.65625 -0.82033,0.8073 -1.82293,1.59506 -3.00781,2.36328 -1.17189,0.76824 -2.33074,1.4323 -3.47657,1.99219 l 0.0391,0.11719 c 0.55989,-0.0521 1.2565,-0.0977 2.08984,-0.13672 0.83332,-0.0521 1.66015,-0.0846 2.48047,-0.0977 1.64061,-0.026 3.444,-0.0456 5.41016,-0.0586 1.96612,-0.026 3.04034,-0.0391 3.22265,-0.0391 l 0,2.67578" />
  </g>
  <g
     id="minute"
     transform="translate(25.663045,-684.36698)"
     inkscape:export-xdpi="90"
     inkscape:export-ydpi="90">
    <path
       inkscape:connector-curvature="0"
       style="font-size:medium;font-style:normal;font-variant:normal;font-weight:normal;font-stretch:normal;text-indent:0;text-align:start;text-decoration:none;line-height:normal;letter-spacing:normal;word-spacing:normal;text-transform:none;direction:ltr;block-progression:tb;writing-mode:lr-tb;text-anchor:start;baseline-shift:baseline;color:#000000;fill:#00aad4;fill-opacity:1;stroke:#006680;stroke-width:1.89999998;stroke-linecap:round;stroke-linejoin:round;stroke-miterlimit:0;stroke-opacity:1;stroke-dasharray:none;marker:none;visibility:visible;overflow:visible;enable-background:accumulate;font-family:Sans;-inkscape-font-specification:Sans"
       id="minutePath"
       d="m 174.35706,807.08093 -8.40625,22.84375 c 1.89173,-1.35771 4.02563,-2.18934 6.21875,-2.53125 l 1e-5,49.65625 c -3.11749,0.94502 -5.375,3.82313 -5.37501,7.25 0,4.1952 3.39856,7.59375 7.59376,7.59375 4.1952,0 7.59374,-3.39855 7.59374,-7.59375 1e-5,-3.48094 -2.33766,-6.38405 -5.53125,-7.28123 l 1e-5,-49.65626 c 2.23222,0.3244 4.41947,1.16949 6.31249,2.56249 l -7.4375,-20.21875 -7e-5,-0.0937 -0.0312,-10e-6 -0.93751,-2.53124 z" />
  </g>
  <g
     id="hour"
     transform="translate(25.663045,-684.36698)"
     inkscape:export-xdpi="90"
     inkscape:export-ydpi="90">
    <path
       inkscape:connector-curvature="0"
       style="font-size:medium;font-style:normal;font-variant:normal;font-weight:normal;font-stretch:normal;text-indent:0;text-align:start;text-decoration:none;line-height:normal;letter-spacing:normal;word-spacing:normal;text-transform:none;direction:ltr;block-progression:tb;writing-mode:lr-tb;text-anchor:start;baseline-shift:baseline;color:#000000;fill:#00d455;fill-opacity:1;stroke:#008033;stroke-width:1.41495502;stroke-linecap:round;stroke-linejoin:round;stroke-miterlimit:0;stroke-opacity:1;stroke-dasharray:none;marker:none;visibility:visible;overflow:visible;enable-background:accumulate;font-family:Sans;-inkscape-font-specification:Sans"
       id="hourPath"
       d="m 174.35706,826.7497 -6.26025,17.01204 c 1.4088,-1.01112 2.99794,-1.63044 4.63119,-1.88506 l 0,36.97967 c -2.32163,0.70376 -4.00283,2.84712 -4.00283,5.39917 0,3.12422 2.53094,5.65516 5.65516,5.65516 3.12422,0 5.65516,-2.53094 5.65516,-5.65516 0,-2.59231 -1.74088,-4.75429 -4.11919,-5.42245 l 0,-36.97966 c 1.66237,0.24159 3.29125,0.87094 4.701,1.90833 l -5.5388,-15.05717 0,-0.0697 -0.0232,0 -0.69816,-1.88506 z" />
  </g>
  <circle
     sodipodi:ry="3"
     sodipodi:rx="3"
     sodipodi:cy="884.25629"
     sodipodi:cx="174.35706"
     d="m 177.35706,884.25629 c 0,1.65685 -1.34315,3 -3,3 -1.65686,0 -3,-1.34315 -3,-3 0,-1.65686 1.34314,-3 3,-3 1.65685,0 3,1.34314 3,3 z"
     style="fill:#000000"
     id="circle3115"
     r="3"
     cy="884.25629"
     cx="174.35706"
     transform="translate(25.663045,-684.36698)" />
</svg>
